<?xml version="1.0" encoding="iso-8859-1"?>
<!-- Generator: Adobe Illustrator 16.0.0, SVG Export Plug-In . SVG Version: 6.00 Build 0)  -->
<!DOCTYPE svg PUBLIC "-//W3C//DTD SVG 1.1//EN" "http://www.w3.org/Graphics/SVG/1.1/DTD/svg11.dtd">
<svg version="1.1" id="Capa_1" xmlns="http://www.w3.org/2000/svg" xmlns:xlink="http://www.w3.org/1999/xlink" x="0px" y="0px"
	 width="97.114px" height="97.114px" viewBox="0 0 97.114 97.114" style="enable-background:new 0 0 97.114 97.114;"
	 xml:space="preserve">
<g>
	<path d="M97.114,31.444L69.709,15.982v-3.153h-5.59l-3.668-2.07l-1.168,2.07h-21.45l-1.183-2.096l-3.705,2.096h-5.332v3.012
		L0,31.445l31.035,54.917l17.509-9.895l17.572,9.914L97.114,31.444z M67.873,14.662v0.283l-0.5-0.283H67.873z M29.449,16.911
		l3.978-2.249h3.334l10.751,19.026l-18.06,32.008l14.844,8.375H29.449V16.911z M48.567,35.555l16.615,29.4l-16.129,9.115h-1.019
		l-16.08-9.072L48.567,35.555z M67.684,65.65L49.621,33.687l10.732-19.024h3.283l4.236,2.391v57.019H52.784L67.684,65.65z
		 M58.246,14.662L48.565,31.82L38.87,14.662H58.246z M29.449,14.662h0.247l-0.247,0.141V14.662z M2.502,32.139L27.613,17.95v57.957
		h18.19L31.73,83.86L2.502,32.139z M51.288,75.907h18.421V18.09l24.904,14.051L65.42,83.88L51.288,75.907z"/>
</g>
<g>
</g>
<g>
</g>
<g>
</g>
<g>
</g>
<g>
</g>
<g>
</g>
<g>
</g>
<g>
</g>
<g>
</g>
<g>
</g>
<g>
</g>
<g>
</g>
<g>
</g>
<g>
</g>
<g>
</g>
</svg>
